<?xml version="1.0" standalone="no"?>
<!DOCTYPE svg PUBLIC "-//W3C//DTD SVG 20010904//EN"
 "http://www.w3.org/TR/2001/REC-SVG-20010904/DTD/svg10.dtd">
<svg version="1.0" xmlns="http://www.w3.org/2000/svg"
 width="512.000000pt" height="512.000000pt" viewBox="0 0 512.000000 512.000000"
 preserveAspectRatio="xMidYMid meet">

<g transform="translate(0.000000,512.000000) scale(0.100000,-0.100000)"
fill="#FFFFFF" stroke="none">
<path d="M29 4631 c-28 -29 -29 -32 -29 -135 l0 -106 2105 0 2105 0 0 83 c0
45 -5 99 -10 119 -21 74 172 68 -2098 68 l-2044 0 -29 -29z"/>
<path d="M0 4025 l0 -185 2105 0 2105 0 -2 183 -3 182 -2102 3 -2103 2 0 -185z"/>
<path d="M2 2769 l3 -891 28 -24 28 -24 334 0 334 0 3 718 c3 706 3 718 24
763 25 53 80 110 132 136 35 17 113 18 1677 23 l1640 5 0 90 0 90 -2103 3
-2102 2 2 -891z"/>
<path d="M953 3272 c-13 -9 -27 -33 -33 -52 -14 -49 -14 -2642 0 -2692 21 -74
-172 -68 2098 -68 l2044 0 29 29 29 30 -2 1361 -3 1362 -28 24 -28 24 -2042 0
c-1921 0 -2043 -1 -2064 -18z m597 -437 l0 -95 -180 0 -180 0 0 95 0 95 180 0
180 0 0 -95z m1650 0 l0 -95 -730 0 -730 0 0 95 0 95 730 0 730 0 0 -95z
m1495 81 c18 -8 38 -23 44 -34 7 -14 11 -139 11 -371 l0 -350 -24 -28 -24 -28
-464 -3 c-254 -2 -478 0 -497 3 -18 4 -44 17 -57 30 l-24 24 0 353 c0 390 0
389 63 407 18 5 236 10 485 10 369 1 459 -2 487 -13z m-1495 -446 l0 -90
-1005 0 -1005 0 0 90 0 90 1005 0 1005 0 0 -90z m1524 -1126 l26 -27 0 -218
c0 -216 0 -218 -24 -246 l-24 -28 -1699 -3 c-934 -1 -1713 0 -1732 3 -18 4
-44 17 -57 30 -24 24 -24 26 -24 240 l0 217 29 29 29 29 1725 0 1724 0 27 -26z"/>
<path d="M3840 2515 l0 -225 365 0 365 0 0 225 0 225 -365 0 -365 0 0 -225z"/>
<path d="M1370 1100 l0 -90 1600 0 1600 0 0 90 0 90 -1600 0 -1600 0 0 -90z"/>
</g>
</svg>
