<?xml version="1.0" standalone="no"?>
<!DOCTYPE svg PUBLIC "-//W3C//DTD SVG 20010904//EN"
 "http://www.w3.org/TR/2001/REC-SVG-20010904/DTD/svg10.dtd">
<svg version="1.0" xmlns="http://www.w3.org/2000/svg"
 width="500.000000pt" height="500.000000pt" viewBox="0 0 500.000000 500.000000"
 preserveAspectRatio="xMidYMid meet">

<g transform="translate(0.000000,500.000000) scale(0.100000,-0.100000)"
fill="#000000" stroke="none">
<path d="M2290 3413 c0 -10 5 -51 10 -92 6 -41 8 -76 6 -78 -1 -2 -72 26 -156
62 -85 36 -155 65 -157 65 -1 0 7 -24 19 -52 11 -29 38 -100 58 -158 l38 -105
37 -3 38 -3 -7 51 c-8 59 -10 59 92 14 38 -17 52 -28 52 -43 0 -17 6 -21 34
-21 38 0 40 3 51 141 l7 76 338 -145 338 -145 -28 -81 c-114 -339 -334 -596
-639 -747 -111 -55 -263 -107 -390 -135 -114 -24 -88 -29 57 -10 492 64 799
278 1012 705 62 124 133 327 117 334 -7 3 -214 91 -461 196 -247 105 -453 191
-457 191 -5 0 -9 -8 -9 -17z"/>
<path d="M2561 2990 l-44 -20 7 -53 c3 -28 6 -79 6 -112 0 -60 1 -61 33 -73
45 -16 43 -16 56 20 10 29 9 34 -19 63 -34 35 -37 53 -15 95 16 32 49 39 85
20 13 -7 21 -7 25 0 9 15 25 12 25 -5 0 -9 16 -23 35 -32 37 -18 39 -21 26
-41 -7 -12 -14 -11 -41 3 -34 18 -40 15 -58 -27 -10 -25 -9 -29 18 -48 37 -27
46 -59 26 -98 -19 -36 -38 -45 -72 -32 -14 6 -37 7 -51 4 -21 -6 -25 -4 -20 9
4 10 -4 19 -24 27 -35 15 -36 14 -41 -29 -2 -27 2 -38 24 -54 34 -26 130 -34
183 -17 87 29 152 131 142 223 -8 63 -48 131 -97 163 -55 37 -148 43 -209 14z"/>
<path d="M1799 2935 c17 -30 31 -57 31 -60 0 -3 -53 -5 -117 -5 l-117 0 86
-87 c47 -49 106 -117 131 -152 26 -35 47 -61 47 -59 0 17 -45 129 -65 165
l-26 43 56 0 c63 0 59 6 102 -130 l24 -75 -6 85 c-4 71 -19 144 -52 243 -5 16
11 17 241 17 225 0 247 -2 254 -17 11 -29 6 -233 -7 -298 -43 -201 -168 -395
-341 -526 -38 -29 -68 -55 -66 -56 2 -2 31 12 65 32 203 114 346 296 401 510
24 93 36 261 26 358 l-8 67 -345 0 -345 0 31 -55z"/>
<path d="M2624 2875 c-4 -8 0 -22 7 -31 12 -14 14 -14 26 2 7 10 13 24 13 31
0 18 -39 16 -46 -2z"/>
<path d="M2092 2810 c-95 -58 -95 -192 0 -250 93 -56 218 15 218 125 0 78 -67
145 -145 145 -22 0 -54 -9 -73 -20z m88 -30 c0 -5 11 -10 25 -10 14 0 25 -4
25 -10 0 -5 -11 -10 -25 -10 -21 0 -25 -5 -25 -28 0 -22 7 -30 30 -39 24 -9
30 -17 30 -42 0 -26 -6 -33 -35 -45 -40 -17 -105 -11 -105 10 0 8 11 14 25 14
21 0 25 5 25 30 0 23 -5 31 -25 36 -46 12 -47 84 0 84 14 0 25 5 25 10 0 6 7
10 15 10 8 0 15 -4 15 -10z"/>
<path d="M2135 2737 c-4 -10 -5 -21 -1 -24 10 -10 18 4 13 24 -4 17 -4 17 -12
0z"/>
<path d="M2180 2645 c0 -15 4 -24 10 -20 6 3 10 12 10 20 0 8 -4 17 -10 20 -6
4 -10 -5 -10 -20z"/>
<path d="M2642 2731 c-9 -25 -8 -30 9 -34 22 -6 33 11 27 39 -5 29 -25 27 -36
-5z"/>
<path d="M3140 2618 c-6 -18 -43 -123 -82 -233 -38 -110 -78 -224 -89 -253
l-18 -53 51 3 51 3 98 280 c55 154 99 281 99 283 0 1 -22 2 -49 2 -46 0 -50
-2 -61 -32z"/>
<path d="M3262 2459 l3 -42 88 -30 c48 -17 84 -34 80 -38 -5 -5 -44 -21 -88
-36 l-80 -28 -3 -44 c-2 -33 0 -42 10 -39 7 3 73 27 146 53 l132 48 0 48 0 47
-67 26 c-158 59 -206 76 -215 76 -5 0 -8 -19 -6 -41z"/>
<path d="M1502 2432 l-153 -57 3 -49 3 -50 75 -27 c41 -15 112 -41 158 -58
l82 -30 0 49 c0 33 -4 50 -12 51 -7 0 -53 15 -103 33 l-89 33 59 22 c160 58
145 48 145 97 0 24 -3 44 -7 43 -5 0 -77 -26 -161 -57z"/>
<path d="M1850 1901 l0 -69 -31 15 c-38 19 -102 12 -138 -14 -83 -61 -78 -215
9 -266 36 -22 118 -22 148 -1 20 14 22 14 22 0 0 -12 11 -16 50 -16 l50 0 0
210 0 210 -55 0 -55 0 0 -69z m-12 -149 c17 -23 15 -82 -5 -104 -21 -24 -65
-23 -87 1 -18 20 -24 80 -11 101 19 31 79 32 103 2z"/>
<path d="M3580 1761 l0 -211 55 0 55 0 0 38 c0 34 14 62 30 62 3 0 23 -22 44
-50 l38 -50 65 0 65 0 -66 84 c-36 47 -66 88 -66 93 0 4 26 33 57 65 l57 58
-58 0 c-55 0 -62 -3 -112 -45 l-53 -46 -3 103 -3 103 -52 3 -53 3 0 -210z"/>
<path d="M967 1940 c-86 -26 -142 -113 -135 -210 7 -94 62 -156 161 -181 62
-15 144 1 188 38 l30 26 -32 33 -32 33 -26 -20 c-39 -28 -81 -33 -121 -12 -41
21 -60 54 -60 107 0 30 7 45 34 72 41 41 97 47 140 13 l27 -21 34 27 c19 14
35 30 35 35 0 13 -49 45 -89 58 -39 14 -113 14 -154 2z"/>
<path d="M2410 1744 l0 -196 143 4 c155 4 189 14 213 59 23 45 17 78 -19 114
l-33 33 23 26 c41 48 24 109 -37 141 -21 11 -63 15 -160 15 l-130 0 0 -196z
m233 94 c19 -30 -8 -48 -74 -48 l-59 0 0 35 0 36 61 -3 c45 -2 65 -8 72 -20z
m15 -140 c36 -36 -3 -68 -84 -68 l-64 0 0 40 0 40 68 0 c40 0 73 -5 80 -12z"/>
<path d="M1330 1838 c-83 -43 -110 -120 -71 -200 28 -58 80 -88 152 -88 103 0
169 59 169 153 0 64 -28 109 -84 136 -55 27 -111 27 -166 -1z m125 -83 c30
-30 32 -64 4 -99 -39 -50 -109 -20 -109 47 0 37 7 49 35 65 30 17 43 15 70
-13z"/>
<path d="M2110 1849 c-120 -50 -134 -213 -24 -276 48 -28 139 -31 190 -7 40
19 42 33 10 63 -20 19 -28 21 -44 12 -43 -23 -122 -7 -122 24 0 12 20 15 111
15 l112 0 -6 42 c-6 45 -28 81 -70 112 -30 22 -119 31 -157 15z m113 -87 c29
-26 19 -32 -48 -32 -63 0 -65 1 -55 21 21 38 65 43 103 11z"/>
<path d="M2905 1854 c-11 -3 -32 -10 -47 -16 -27 -10 -27 -10 -10 -45 13 -27
20 -33 37 -28 66 22 125 12 125 -20 0 -11 -13 -15 -50 -15 -91 0 -140 -34
-140 -97 1 -52 42 -83 112 -83 24 0 54 7 66 16 20 14 22 14 22 0 0 -12 11 -16
50 -16 l50 0 0 100 c0 112 -14 159 -54 185 -25 17 -123 28 -161 19z m105 -199
c0 -49 -79 -59 -88 -11 -4 17 28 34 66 35 17 1 22 -5 22 -24z"/>
<path d="M3325 1844 c-19 -10 -31 -11 -33 -5 -2 6 -26 11 -53 11 l-49 0 0
-150 0 -150 49 0 49 0 4 96 c3 105 16 128 68 122 36 -4 50 -41 50 -135 l0 -83
50 0 50 0 0 105 c0 129 -14 169 -64 190 -45 19 -83 19 -121 -1z"/>
</g>
</svg>
