<?xml version="1.0" standalone="no"?>
<!DOCTYPE svg PUBLIC "-//W3C//DTD SVG 20010904//EN"
 "http://www.w3.org/TR/2001/REC-SVG-20010904/DTD/svg10.dtd">
<svg version="1.0" xmlns="http://www.w3.org/2000/svg"
 width="512.000000pt" height="512.000000pt" viewBox="0 0 512.000000 512.000000"
 preserveAspectRatio="xMidYMid meet">

<g transform="translate(0.000000,512.000000) scale(0.100000,-0.100000)"
fill="#000000" stroke="none">
<path d="M883 3986 c-28 -24 -28 -24 -31 -170 l-3 -146 -141 0 -140 0 -29 -29
-29 -29 0 -141 0 -141 -226 0 -226 0 -29 -29 -29 -29 0 -1046 c0 -745 3 -1052
11 -1069 6 -14 22 -30 36 -36 17 -8 598 -11 2093 -11 l2069 0 28 24 c28 24 28
24 31 170 l3 146 226 0 225 0 29 29 29 29 0 141 0 141 141 0 141 0 29 29 29
29 0 1046 c0 745 -3 1052 -11 1069 -6 14 -22 30 -36 36 -17 8 -598 11 -2093
11 l-2069 0 -28 -24z m4067 -1086 l0 -940 -85 0 -85 0 0 826 0 826 -29 29 -29
29 -1851 0 -1851 0 0 85 0 85 1965 0 1965 0 0 -940z m-340 -340 l0 -940 -170
0 -170 0 0 815 c0 890 2 863 -56 885 -16 6 -687 10 -1780 10 l-1754 0 0 85 0
85 1965 0 1965 0 0 -940z m-3933 548 c-14 -114 -103 -226 -213 -267 -44 -17
-78 -21 -174 -21 l-120 0 0 170 0 170 256 0 257 0 -6 -52z m2733 45 c0 -16 19
-126 25 -144 6 -19 -20 -19 -1300 -19 l-1307 0 6 23 c3 12 9 50 13 85 l6 62
1278 0 c704 0 1279 -3 1279 -7z m688 -166 l2 -169 -137 4 c-126 3 -142 6 -188
30 -60 32 -125 97 -155 157 -22 43 -42 136 -32 146 3 3 118 4 256 3 l251 -3 3
-168z m-2050 -253 l3 -81 -63 -6 c-51 -5 -67 -10 -85 -32 -22 -25 -23 -33 -23
-229 l0 -203 26 -24 c24 -23 33 -24 170 -27 l144 -3 0 -85 0 -84 -170 0 -170
0 0 -85 0 -85 85 0 85 0 0 -85 0 -85 -661 0 -661 0 -50 44 c-27 24 -76 56
-109 72 l-59 29 1 455 0 455 59 28 c33 15 81 48 107 72 l48 44 660 -2 660 -2
3 -81z m1534 46 c23 -22 71 -54 105 -72 l63 -33 0 -456 0 -457 -54 -26 c-30
-15 -77 -47 -104 -71 l-50 -45 -661 0 -661 0 0 84 0 84 62 4 c52 4 65 9 85 32
24 28 24 29 21 233 -4 260 9 243 -194 243 l-144 0 0 85 0 85 168 2 167 3 0 85
0 85 -82 3 -83 3 0 84 0 85 659 0 659 0 44 -40z m-3242 -560 l0 -430 -85 0
-85 0 0 423 c0 233 3 427 7 430 3 4 42 7 85 7 l78 0 0 -430z m3755 0 l0 -425
-82 -3 -83 -3 0 431 0 431 83 -3 82 -3 0 -425z m-3597 -639 c101 -55 167 -148
179 -252 l6 -49 -257 0 -256 0 0 171 0 171 133 -4 c128 -3 134 -4 195 -37z
m3602 -131 l0 -170 -261 0 c-243 0 -260 1 -256 18 3 9 8 35 12 57 18 108 117
215 230 251 22 7 93 13 158 13 l117 1 0 -170z m-660 -9 c0 -4 -4 -21 -9 -37
-5 -16 -12 -50 -16 -76 l-6 -48 -1278 0 -1278 0 -6 58 c-4 31 -10 69 -13 85
l-6 27 1306 0 c718 0 1306 -4 1306 -9z"/>
</g>
</svg>
